<svg xmlns="http://www.w3.org/2000/svg" width="26.526" height="25.506" viewBox="0 0 26.526 25.506">
  <path id="ios-heart-empty" d="M67.384,56h-.064a7.255,7.255,0,0,0-6.058,3.316A7.255,7.255,0,0,0,55.205,56h-.064A7.209,7.209,0,0,0,48,63.205a15.522,15.522,0,0,0,3.048,8.462,53.414,53.414,0,0,0,10.215,9.839,53.414,53.414,0,0,0,10.215-9.839,15.522,15.522,0,0,0,3.048-8.462A7.209,7.209,0,0,0,67.384,56Zm2.653,14.615a48.908,48.908,0,0,1-8.774,8.646,48.98,48.98,0,0,1-8.774-8.653,13.756,13.756,0,0,1-2.7-7.4,5.41,5.41,0,0,1,5.369-5.414h.057a5.346,5.346,0,0,1,2.621.689A5.572,5.572,0,0,1,59.771,60.3a1.791,1.791,0,0,0,3,0,5.627,5.627,0,0,1,1.938-1.817,5.346,5.346,0,0,1,2.621-.689h.057a5.41,5.41,0,0,1,5.369,5.414A13.93,13.93,0,0,1,70.037,70.615Z" transform="translate(-48 -56)" fill="#32353c"/>
</svg>
