<svg xmlns="http://www.w3.org/2000/svg" xmlns:xlink="http://www.w3.org/1999/xlink" width="42.799" height="39.292" viewBox="0 0 42.799 39.292">
  <defs>
    <filter id="star_fully_filled" x="0" y="0" width="42.799" height="39.292" filterUnits="userSpaceOnUse">
      <feOffset dy="3" input="SourceAlpha"/>
      <feGaussianBlur stdDeviation="3" result="blur"/>
      <feFlood flood-opacity="0.161"/>
      <feComposite operator="in" in2="blur"/>
      <feComposite in="SourceGraphic"/>
    </filter>
  </defs>
  <g transform="matrix(1, 0, 0, 1, 0, 0)" filter="url(#star_fully_filled)">
    <path id="star_fully_filled-2" data-name="star fully filled" d="M23.142,7.267l-7.308-.954L12.558.352a.843.843,0,0,0-1.344,0L7.939,6.314.631,7.267A.614.614,0,0,0,.212,8.338l5.309,4.649L4.266,19.56c-.1.522.553.914,1.093.658l6.528-3.082,6.528,3.083c.535.254,1.194-.13,1.093-.658l-1.255-6.573,5.309-4.649a.615.615,0,0,0-.419-1.071Z" transform="translate(9.51 6.48)" fill="none" stroke="#ffc107" stroke-width="1"/>
  </g>
</svg>
